<?xml version="1.0" encoding="UTF-8" standalone="no"?>
<!-- Created with Inkscape (http://www.inkscape.org/) -->

<svg
   width="297mm"
   height="297mm"
   viewBox="0 0 297 297"
   version="1.1"
   id="svg1"
   xmlns:xlink="http://www.w3.org/1999/xlink"
   xmlns="http://www.w3.org/2000/svg"
   xmlns:svg="http://www.w3.org/2000/svg">
  <defs
     id="defs1">
    <linearGradient
       id="linearGradient27">
      <stop
         style="stop-color:#a5cdda;stop-opacity:1;"
         offset="0"
         id="stop27" />
      <stop
         style="stop-color:#67abc0;stop-opacity:1;"
         offset="1"
         id="stop28" />
    </linearGradient>
    <linearGradient
       id="linearGradient26">
      <stop
         style="stop-color:#0e3b49;stop-opacity:1;"
         offset="0"
         id="stop25" />
      <stop
         style="stop-color:#0e3f4e;stop-opacity:1;"
         offset="1"
         id="stop26" />
    </linearGradient>
    <linearGradient
       id="linearGradient23">
      <stop
         style="stop-color:#4693aa;stop-opacity:1;"
         offset="0"
         id="stop23" />
      <stop
         style="stop-color:#67abc0;stop-opacity:0;"
         offset="1"
         id="stop24" />
    </linearGradient>
    <linearGradient
       id="linearGradient18">
      <stop
         style="stop-color:#124c5e;stop-opacity:1;"
         offset="0"
         id="stop18" />
      <stop
         style="stop-color:#14586d;stop-opacity:1;"
         offset="1"
         id="stop19" />
    </linearGradient>
    <linearGradient
       xlink:href="#linearGradient26"
       id="linearGradient37"
       gradientUnits="userSpaceOnUse"
       x1="201.03883"
       y1="145.59447"
       x2="205.6416"
       y2="150.19724" />
    <linearGradient
       xlink:href="#linearGradient23"
       id="linearGradient38"
       gradientUnits="userSpaceOnUse"
       x1="169.23982"
       y1="177.29791"
       x2="159.24913"
       y2="187.2886" />
    <radialGradient
       xlink:href="#linearGradient27"
       id="radialGradient38"
       gradientUnits="userSpaceOnUse"
       gradientTransform="matrix(1.3091154,0,0,0.71037457,-51.356036,23.527749)"
       cx="166.1387"
       cy="-6.1476879"
       fx="166.1387"
       fy="-6.1476879"
       r="87.382782" />
    <linearGradient
       xlink:href="#linearGradient18"
       id="linearGradient39"
       gradientUnits="userSpaceOnUse"
       x1="183.44135"
       y1="128.12888"
       x2="214.59837"
       y2="96.271698" />
  </defs>
  <g
     id="layer1">
    <g
       id="g37"
       transform="matrix(0.94465776,0,0,0.94465776,-5.9911744,7.551996)">
      <path
         id="path28"
         style="fill:#14586d;fill-opacity:1;stroke:none;stroke-width:0.190041;stroke-linecap:square;stroke-miterlimit:2;paint-order:fill markers stroke"
         d="m 95.775035,36.944255 -15.357481,-10e-6 c -3.79773,10e-6 -6.855273,3.05757 -6.855274,6.8553 l -5e-6,35.625988 c 9e-6,3.79774 3.057547,6.855278 6.85529,6.85528 l 15.35748,1e-5 z" />
      <path
         id="path29"
         style="fill:url(#linearGradient37);fill-opacity:1;stroke:none;stroke-width:0.2;stroke-linecap:square;stroke-miterlimit:2;paint-order:fill markers stroke"
         d="m 155.36209,115.98724 c -3.99676,0 -7.21403,3.21778 -7.21403,7.21454 v 52.00716 c 0,3.99677 3.21727,7.21455 7.21403,7.21455 h 55.28293 c 3.65258,0 6.65434,-2.68724 7.14427,-6.20065 a 52.332111,52.332111 0 0 1 -7.51324,-27.01748 52.332111,52.332111 0 0 1 7.51324,-27.01747 c -0.48993,-3.51341 -3.49169,-6.20065 -7.14427,-6.20065 z" />
      <path
         id="path30"
         style="fill:#0c3441;fill-opacity:1;stroke:none;stroke-width:0.16914;stroke-linecap:square;stroke-miterlimit:2;paint-order:fill markers stroke"
         d="m 145.86344,121.11281 c -3.38006,0 -6.1009,2.72128 -6.1009,6.10134 v 43.98243 c 0,3.38006 2.72084,6.10134 6.1009,6.10134 h 46.75275 c 3.08898,0 5.62757,-2.2726 6.0419,-5.24389 a 44.257241,44.257241 0 0 1 -6.35394,-22.84867 44.257241,44.257241 0 0 1 6.35394,-22.84866 c -0.41433,-2.97129 -2.95292,-5.24389 -6.0419,-5.24389 z" />
      <path
         id="path31"
         style="fill:#67abc0;fill-opacity:1;stroke-width:0.190041;stroke-linecap:square;stroke-miterlimit:2;paint-order:fill markers stroke"
         d="m 95.940562,19.16073 c -9.52032,0 -17.18461,7.66429 -17.18461,17.18461 v 36.447753 152.824537 7.21178 29.23598 c 0,9.52032 7.66429,17.18461 17.18461,17.18461 H 225.75351 c 9.52032,0 17.18461,-7.66429 17.18461,-17.18461 v -36.44776 c 0,-0.26638 -0.007,-0.53114 -0.0181,-0.79448 0.26588,-7.38594 -3.06216,-14.29026 -8.09464,-20.5192 l -65.68193,-55.09859 65.68193,-55.098087 c 5.66236,-5.662371 8.36048,-13.133308 8.09464,-20.519201 0.0119,-0.263384 0.0181,-0.52856 0.0181,-0.794979 V 36.34534 c 0,-9.52032 -7.66429,-17.18461 -17.18461,-17.18461 z" />
      <path
         id="path32"
         style="fill:none;fill-opacity:1;stroke:#4895ad;stroke-width:0.190041;stroke-linecap:square;stroke-miterlimit:2;stroke-opacity:1;paint-order:fill markers stroke"
         d="m 78.943552,260.87136 -2e-5,-46.55891 c 0,-0.75335 0.12258,-1.48554 0,-2.18797 l 75.883218,-76.0708 35.67069,12.85709 0.20357,0.20309 z" />
      <path
         id="path33"
         style="fill:url(#linearGradient38);fill-opacity:1;stroke-width:0.2;stroke-linecap:square;stroke-miterlimit:2;paint-order:fill markers stroke"
         d="m 78.755952,86.280823 113.803778,78.057377 18.08529,18.08529 21.37049,56.5066 -13.09603,38.49278 L 113.86034,257.01538 78.755952,247.4474 V 104.36611 Z" />
      <path
         id="path34"
         style="fill:url(#radialGradient38);fill-opacity:1;stroke-width:0.190041;stroke-linecap:square;stroke-miterlimit:2;paint-order:fill markers stroke"
         d="m 95.940397,19.160588 c -9.52032,0 -17.184481,7.664677 -17.184481,17.184997 v 25.34574 L 160.35352,143.3096 248.22981,62.552771 V 36.345585 c 0,-9.52032 -2.37249,-17.184997 -11.89281,-17.184997 z" />
      <path
         id="path35"
         style="fill:url(#linearGradient39);fill-opacity:1;stroke:none;stroke-width:0.190041;stroke-linecap:square;stroke-miterlimit:2;paint-order:fill markers stroke"
         d="m 225.77476,14.132576 c -3.79773,0 -6.85528,3.057545 -6.85528,6.855283 l 1e-5,15.357481 v 33.970011 l -1e-5,1.752981 -65.15047,65.150478 23.22036,25.71382 71.4833,-71.483302 c 3.74633,-3.746325 5.40782,-8.764325 4.98446,-13.638882 0.0427,-0.4961 0.0643,-0.998456 0.0643,-1.505992 l 1e-5,-5.989103 V 36.34534 l -1e-5,-15.357481 c 0,-3.797738 -3.05754,-6.855283 -6.85528,-6.855283 z" />
      <path
         id="path36"
         style="fill:#14586d;fill-opacity:1;stroke:none;stroke-width:0.190041;stroke-linecap:square;stroke-miterlimit:2;paint-order:fill markers stroke"
         d="m 174.08345,132.57218 -27.45944,21.47475 72.29547,72.29546 v 1.75298 33.97002 15.35748 c 0,3.79774 3.05756,6.85528 6.85529,6.85528 h 20.8914 c 3.79773,0 6.85528,-3.05754 6.85528,-6.85528 v -15.35748 -33.97002 -5.9891 c 0,-0.50754 -0.0217,-1.00989 -0.0643,-1.50599 0.42337,-4.87456 -1.23813,-9.89255 -4.98445,-13.63887 z" />
      <path
         id="path37"
         style="fill:#14586d;fill-opacity:1;stroke:none;stroke-width:0.190041;stroke-linecap:square;stroke-miterlimit:2;paint-order:fill markers stroke"
         d="m 78.728549,37.152211 -2.54663,4.575024 -0.161287,38.67122 2.568645,5.63779 76.049863,76.026215 35.67069,-12.8571 0.20361,-0.20309 z" />
    </g>
  </g>
</svg>
